<svg xmlns="http://www.w3.org/2000/svg" width="960" height="540" viewBox="0 0 960 540"><rect width="100%" height="100%" fill="#0b1420"/><text x="24" y="28" fill="#dbe9ff" font-size="18">bgm.battle.low RMS 0.00910 peak 0.04448</text><line x1="24" y1="92" x2="936" y2="92" stroke="#31455f"/><polyline points="24.0,92.0 31.2,92.0 38.4,92.0 45.5,92.0 52.7,92.0 59.9,92.0 67.1,92.0 74.3,92.0 81.4,92.0 88.6,92.0 95.8,92.0 103.0,92.0 110.2,92.0 117.4,92.0 124.5,92.0 131.7,92.0 138.9,92.0 146.1,92.0 153.3,92.0 160.4,92.0 167.6,92.0 174.8,92.0 182.0,92.0 189.2,92.0 196.3,92.0 203.5,92.0 210.7,92.0 217.9,92.0 225.1,92.0 232.3,92.0 239.4,92.0 246.6,92.0 253.8,92.0 261.0,92.0 268.2,92.0 275.3,92.0 282.5,92.0 289.7,92.0 296.9,92.0 304.1,92.0 311.2,92.0 318.4,92.0 325.6,92.0 332.8,92.0 340.0,92.0 347.1,92.0 354.3,92.0 361.5,92.0 368.7,92.0 375.9,92.0 383.1,92.0 390.2,92.0 397.4,92.0 404.6,92.0 411.8,92.0 419.0,92.0 426.1,92.0 433.3,92.0 440.5,92.0 447.7,92.0 454.9,92.0 462.0,92.0 469.2,92.0 476.4,92.0 483.6,92.0 490.8,92.0 498.0,92.0 505.1,92.0 512.3,92.0 519.5,92.0 526.7,92.0 533.9,92.0 541.0,92.0 548.2,92.0 555.4,92.0 562.6,92.0 569.8,92.0 576.9,92.0 584.1,92.0 591.3,92.0 598.5,92.0 605.7,92.0 612.9,92.0 620.0,92.0 627.2,92.0 634.4,92.0 641.6,92.0 648.8,92.0 655.9,92.0 663.1,92.0 670.3,92.0 677.5,92.0 684.7,92.0 691.8,92.0 699.0,92.0 706.2,92.0 713.4,92.0 720.6,92.0 727.7,92.0 734.9,92.0 742.1,92.0 749.3,92.0 756.5,92.0 763.7,92.0 770.8,92.0 778.0,92.0 785.2,92.0 792.4,92.0 799.6,92.0 806.7,92.0 813.9,92.0 821.1,92.0 828.3,92.0 835.5,92.0 842.6,92.0 849.8,92.0 857.0,92.0 864.2,92.0 871.4,92.0 878.6,92.0 885.7,92.0 892.9,92.0 900.1,92.0 907.3,92.0 914.5,92.0 921.6,92.0 928.8,92.0 936.0,92.0" fill="none" stroke="#69b7ff" stroke-width="2"/><text x="24" y="208" fill="#dbe9ff" font-size="18">bgm.battle.high RMS 0.01307 peak 0.06399</text><line x1="24" y1="272" x2="936" y2="272" stroke="#31455f"/><polyline points="24.0,275.2 31.2,275.2 38.4,275.0 45.5,274.7 52.7,274.2 59.9,273.3 67.1,272.1 74.3,270.8 81.4,269.4 88.6,268.1 95.8,267.0 103.0,265.9 110.2,265.2 117.4,264.5 124.5,264.6 131.7,264.9 138.9,265.7 146.1,266.7 153.3,267.9 160.4,269.1 167.6,270.1 174.8,277.3 182.0,277.5 189.2,278.6 196.3,279.5 203.5,280.0 210.7,279.7 217.9,278.9 225.1,277.9 232.3,276.8 239.4,275.7 246.6,274.7 253.8,273.8 261.0,273.1 268.2,272.2 275.3,271.1 282.5,270.0 289.7,269.1 296.9,268.3 304.1,268.1 311.2,268.3 318.4,268.3 325.6,268.1 332.8,267.9 340.0,267.9 347.1,268.0 354.3,268.3 361.5,269.0 368.7,269.6 375.9,270.3 383.1,271.2 390.2,272.4 397.4,273.6 404.6,274.7 411.8,275.4 419.0,275.8 426.1,276.0 433.3,276.0 440.5,275.7 447.7,279.7 454.9,278.7 462.0,277.0 469.2,275.0 476.4,272.8 483.6,270.8 490.8,268.9 498.0,267.2 505.1,265.8 512.3,265.1 519.5,264.5 526.7,264.8 533.9,265.6 541.0,266.9 548.2,268.6 555.4,270.6 562.6,272.7 569.8,274.6 576.9,276.2 584.1,277.7 591.3,278.8 598.5,279.6 605.7,280.0 612.9,279.3 620.0,278.1 627.2,276.5 634.4,274.7 641.6,272.8 648.8,271.0 655.9,269.2 663.1,268.0 670.3,266.8 677.5,264.9 684.7,263.3 691.8,262.1 699.0,261.2 706.2,261.7 713.4,273.8 720.6,273.1 727.7,273.9 734.9,274.7 742.1,275.5 749.3,272.3 756.5,272.9 763.7,273.6 770.8,274.1 778.0,276.3 785.2,278.1 792.4,278.1 799.6,278.2 806.7,278.1 813.9,273.8 821.1,273.9 828.3,273.2 835.5,272.4 842.6,271.7 849.8,273.7 857.0,273.0 864.2,272.1 871.4,271.2 878.6,269.9 885.7,267.2 892.9,266.5 900.1,266.1 907.3,265.8 914.5,268.3 921.6,268.3 928.8,268.9 936.0,269.4" fill="none" stroke="#69b7ff" stroke-width="2"/><text x="24" y="388" fill="#dbe9ff" font-size="18">muted RMS 0.00000 peak 0.00001</text><line x1="24" y1="452" x2="936" y2="452" stroke="#31455f"/><polyline points="24.0,452.0 31.2,452.0 38.4,452.0 45.5,452.0 52.7,452.0 59.9,452.0 67.1,452.0 74.3,452.0 81.4,452.0 88.6,452.0 95.8,452.0 103.0,452.0 110.2,452.0 117.4,452.0 124.5,452.0 131.7,452.0 138.9,452.0 146.1,452.0 153.3,452.0 160.4,452.0 167.6,452.0 174.8,452.0 182.0,452.0 189.2,452.0 196.3,452.0 203.5,452.0 210.7,452.0 217.9,452.0 225.1,452.0 232.3,452.0 239.4,452.0 246.6,452.0 253.8,452.0 261.0,452.0 268.2,452.0 275.3,452.0 282.5,452.0 289.7,452.0 296.9,452.0 304.1,452.0 311.2,452.0 318.4,452.0 325.6,452.0 332.8,452.0 340.0,452.0 347.1,452.0 354.3,452.0 361.5,452.0 368.7,452.0 375.9,452.0 383.1,452.0 390.2,452.0 397.4,452.0 404.6,452.0 411.8,452.0 419.0,452.0 426.1,452.0 433.3,452.0 440.5,452.0 447.7,452.0 454.9,452.0 462.0,452.0 469.2,452.0 476.4,452.0 483.6,452.0 490.8,452.0 498.0,452.0 505.1,452.0 512.3,452.0 519.5,452.0 526.7,452.0 533.9,452.0 541.0,452.0 548.2,452.0 555.4,452.0 562.6,452.0 569.8,452.0 576.9,452.0 584.1,452.0 591.3,452.0 598.5,452.0 605.7,452.0 612.9,452.0 620.0,452.0 627.2,452.0 634.4,452.0 641.6,452.0 648.8,452.0 655.9,452.0 663.1,452.0 670.3,452.0 677.5,452.0 684.7,452.0 691.8,452.0 699.0,452.0 706.2,452.0 713.4,452.0 720.6,452.0 727.7,452.0 734.9,452.0 742.1,452.0 749.3,452.0 756.5,452.0 763.7,452.0 770.8,452.0 778.0,452.0 785.2,452.0 792.4,452.0 799.6,452.0 806.7,452.0 813.9,452.0 821.1,452.0 828.3,452.0 835.5,452.0 842.6,452.0 849.8,452.0 857.0,452.0 864.2,452.0 871.4,452.0 878.6,452.0 885.7,452.0 892.9,452.0 900.1,452.0 907.3,452.0 914.5,452.0 921.6,452.0 928.8,452.0 936.0,452.0" fill="none" stroke="#69b7ff" stroke-width="2"/></svg>