<svg xmlns="http://www.w3.org/2000/svg" width="960" height="540" viewBox="0 0 960 540"><rect width="100%" height="100%" fill="#0b1420"/><text x="24" y="28" fill="#dbe9ff" font-size="18">bgm.battle.low RMS 0.00556 peak 0.02679</text><line x1="24" y1="92" x2="936" y2="92" stroke="#31455f"/><polyline points="24.0,92.0 31.2,92.0 38.4,92.0 45.5,92.0 52.7,92.0 59.9,92.0 67.1,92.0 74.3,92.0 81.4,92.0 88.6,92.0 95.8,92.0 103.0,92.0 110.2,92.0 117.4,92.0 124.5,92.0 131.7,92.0 138.9,92.0 146.1,92.0 153.3,92.0 160.4,92.0 167.6,92.0 174.8,92.0 182.0,92.0 189.2,92.0 196.3,92.0 203.5,92.0 210.7,92.0 217.9,92.0 225.1,92.0 232.3,92.0 239.4,92.0 246.6,92.0 253.8,92.0 261.0,92.0 268.2,92.0 275.3,92.0 282.5,92.0 289.7,92.0 296.9,92.0 304.1,92.0 311.2,92.0 318.4,92.0 325.6,92.0 332.8,92.0 340.0,92.0 347.1,92.0 354.3,92.0 361.5,92.0 368.7,92.0 375.9,92.0 383.1,92.0 390.2,92.0 397.4,92.0 404.6,92.0 411.8,92.0 419.0,92.0 426.1,92.0 433.3,92.0 440.5,92.0 447.7,92.0 454.9,92.0 462.0,92.0 469.2,92.0 476.4,92.0 483.6,92.0 490.8,92.0 498.0,92.0 505.1,92.0 512.3,92.0 519.5,92.0 526.7,92.0 533.9,92.0 541.0,92.0 548.2,92.0 555.4,92.0 562.6,92.0 569.8,92.0 576.9,92.0 584.1,92.0 591.3,92.0 598.5,92.0 605.7,92.0 612.9,92.0 620.0,92.0 627.2,92.0 634.4,92.0 641.6,92.0 648.8,92.0 655.9,92.0 663.1,92.0 670.3,92.0 677.5,92.0 684.7,92.0 691.8,92.0 699.0,92.0 706.2,92.0 713.4,92.0 720.6,92.0 727.7,92.0 734.9,92.0 742.1,92.0 749.3,92.0 756.5,92.0 763.7,92.0 770.8,92.0 778.0,92.0 785.2,92.0 792.4,92.0 799.6,92.0 806.7,92.0 813.9,92.0 821.1,92.0 828.3,92.0 835.5,92.0 842.6,92.0 849.8,92.0 857.0,92.0 864.2,92.0 871.4,92.0 878.6,92.0 885.7,92.0 892.9,92.0 900.1,92.0 907.3,92.0 914.5,92.0 921.6,92.0 928.8,92.0 936.0,92.0" fill="none" stroke="#69b7ff" stroke-width="2"/><text x="24" y="208" fill="#dbe9ff" font-size="18">bgm.battle.high RMS 0.00677 peak 0.03201</text><line x1="24" y1="272" x2="936" y2="272" stroke="#31455f"/><polyline points="24.0,273.7 31.2,273.7 38.4,273.6 45.5,273.5 52.7,273.3 59.9,272.8 67.1,272.2 74.3,271.4 81.4,270.7 88.6,270.0 95.8,269.4 103.0,268.8 110.2,268.5 117.4,268.0 124.5,268.0 131.7,268.2 138.9,268.5 146.1,269.1 153.3,269.7 160.4,270.4 167.6,270.9 174.8,274.1 182.0,274.9 189.2,275.4 196.3,275.9 203.5,276.3 210.7,276.2 217.9,275.8 225.1,275.2 232.3,274.6 239.4,274.0 246.6,273.5 253.8,273.0 261.0,272.7 268.2,272.2 275.3,271.5 282.5,270.9 289.7,270.4 296.9,270.1 304.1,269.9 311.2,270.0 318.4,270.0 325.6,269.9 332.8,269.8 340.0,269.7 347.1,269.8 354.3,270.0 361.5,270.4 368.7,270.7 375.9,271.1 383.1,271.5 390.2,272.1 397.4,272.8 404.6,273.4 411.8,273.8 419.0,274.0 426.1,274.1 433.3,274.1 440.5,274.0 447.7,276.7 454.9,275.6 462.0,274.9 469.2,273.8 476.4,272.6 483.6,271.4 490.8,270.4 498.0,269.5 505.1,268.7 512.3,268.3 519.5,268.0 526.7,268.1 533.9,268.5 541.0,269.1 548.2,270.0 555.4,271.1 562.6,272.3 569.8,273.3 576.9,274.2 584.1,275.0 591.3,275.6 598.5,276.1 605.7,276.3 612.9,276.1 620.0,275.4 627.2,274.6 634.4,273.6 641.6,272.5 648.8,271.6 655.9,270.6 663.1,269.9 670.3,269.3 677.5,268.5 684.7,267.2 691.8,266.7 699.0,266.3 706.2,266.5 713.4,271.1 720.6,272.5 727.7,272.9 734.9,273.3 742.1,273.8 749.3,271.8 756.5,272.7 763.7,273.0 770.8,273.3 778.0,273.7 785.2,275.6 792.4,275.2 799.6,275.4 806.7,275.3 813.9,273.8 821.1,273.1 828.3,272.7 835.5,272.3 842.6,271.8 849.8,273.2 857.0,272.5 864.2,272.1 871.4,271.6 878.6,271.0 885.7,269.2 892.9,269.0 900.1,268.7 907.3,268.6 914.5,269.3 921.6,270.0 928.8,270.2 936.0,270.5" fill="none" stroke="#69b7ff" stroke-width="2"/><text x="24" y="388" fill="#dbe9ff" font-size="18">muted RMS 0.00008 peak 0.00077</text><line x1="24" y1="452" x2="936" y2="452" stroke="#31455f"/><polyline points="24.0,451.9 31.2,451.9 38.4,452.0 45.5,452.0 52.7,452.1 59.9,452.2 67.1,452.2 74.3,452.2 81.4,452.2 88.6,452.1 95.8,452.1 103.0,452.1 110.2,452.0 117.4,451.9 124.5,451.8 131.7,451.8 138.9,451.8 146.1,451.9 153.3,451.9 160.4,451.9 167.6,452.0 174.8,452.0 182.0,452.1 189.2,452.1 196.3,452.0 203.5,452.0 210.7,452.0 217.9,452.1 225.1,452.0 232.3,452.0 239.4,452.0 246.6,452.0 253.8,452.1 261.0,452.1 268.2,452.1 275.3,452.1 282.5,452.1 289.7,452.1 296.9,452.0 304.1,451.9 311.2,451.9 318.4,451.8 325.6,451.8 332.8,451.8 340.0,451.8 347.1,451.9 354.3,451.9 361.5,452.0 368.7,452.1 375.9,452.2 383.1,452.2 390.2,452.2 397.4,452.3 404.6,452.2 411.8,452.2 419.0,452.1 426.1,452.0 433.3,451.9 440.5,451.9 447.7,451.8 454.9,451.8 462.0,451.7 469.2,451.8 476.4,451.8 483.6,451.9 490.8,451.9 498.0,452.0 505.1,452.0 512.3,452.1 519.5,452.2 526.7,452.2 533.9,452.2 541.0,452.2 548.2,452.2 555.4,452.2 562.6,452.1 569.8,452.1 576.9,452.0 584.1,451.9 591.3,451.8 598.5,451.8 605.7,451.7 612.9,451.7 620.0,451.7 627.2,451.8 634.4,451.9 641.6,451.9 648.8,452.0 655.9,452.1 663.1,452.2 670.3,452.3 677.5,452.3 684.7,452.3 691.8,452.2 699.0,452.2 706.2,452.1 713.4,452.0 720.6,451.9 727.7,451.9 734.9,451.8 742.1,451.8 749.3,451.9 756.5,451.9 763.7,451.9 770.8,451.9 778.0,452.0 785.2,452.0 792.4,452.0 799.6,452.0 806.7,452.0 813.9,452.0 821.1,452.0 828.3,452.0 835.5,452.0 842.6,452.0 849.8,452.0 857.0,452.1 864.2,452.1 871.4,452.1 878.6,452.1 885.7,452.1 892.9,452.0 900.1,452.0 907.3,451.9 914.5,451.9 921.6,451.8 928.8,451.8 936.0,451.8" fill="none" stroke="#69b7ff" stroke-width="2"/></svg>